<mxfile host="Electron" agent="Mozilla/5.0 (X11; Linux x86_64) AppleWebKit/537.36 (KHTML, like Gecko) draw.io/24.7.17 Chrome/128.0.6613.36 Electron/32.0.1 Safari/537.36" version="24.7.17">
  <diagram name="Seite-1" id="w0ubQgBeOYjHwB3_H4xk">
    <mxGraphModel dx="1434" dy="835" grid="1" gridSize="10" guides="1" tooltips="1" connect="1" arrows="1" fold="1" page="1" pageScale="1" pageWidth="827" pageHeight="1169" math="0" shadow="0">
      <root>
        <mxCell id="0" />
        <mxCell id="1" parent="0" />
        <mxCell id="7jXIdRQ8j1PeMLdHEunO-10" value="" style="rounded=0;whiteSpace=wrap;html=1;fillColor=#f5f5f5;fontColor=#333333;strokeColor=#666666;" parent="1" vertex="1">
          <mxGeometry x="525" y="360" width="50" height="50" as="geometry" />
        </mxCell>
        <mxCell id="7jXIdRQ8j1PeMLdHEunO-9" value="" style="rounded=0;whiteSpace=wrap;html=1;fillColor=#f5f5f5;fontColor=#333333;strokeColor=#666666;" parent="1" vertex="1">
          <mxGeometry x="515" y="370" width="50" height="50" as="geometry" />
        </mxCell>
        <mxCell id="7jXIdRQ8j1PeMLdHEunO-3" value="" style="rounded=0;whiteSpace=wrap;html=1;fillColor=#f5f5f5;fontColor=#333333;strokeColor=#666666;" parent="1" vertex="1">
          <mxGeometry x="100" y="390" width="120" height="80" as="geometry" />
        </mxCell>
        <mxCell id="7jXIdRQ8j1PeMLdHEunO-2" value="" style="rounded=0;whiteSpace=wrap;html=1;fillColor=#f5f5f5;fontColor=#333333;strokeColor=#666666;" parent="1" vertex="1">
          <mxGeometry x="90" y="400" width="120" height="80" as="geometry" />
        </mxCell>
        <mxCell id="7jXIdRQ8j1PeMLdHEunO-1" value="&lt;font style=&quot;font-size: 14px;&quot;&gt;&lt;b&gt;Socket&lt;br&gt;CAN&lt;/b&gt;&lt;/font&gt;" style="rounded=0;whiteSpace=wrap;html=1;fillColor=#f5f5f5;fontColor=#333333;strokeColor=#666666;" parent="1" vertex="1">
          <mxGeometry x="80" y="410" width="120" height="80" as="geometry" />
        </mxCell>
        <mxCell id="7jXIdRQ8j1PeMLdHEunO-4" value="SocketCAN&lt;br&gt;MCAP&lt;br&gt;Logger" style="rounded=0;whiteSpace=wrap;html=1;fillColor=#f5f5f5;fontColor=#333333;strokeColor=#666666;" parent="1" vertex="1">
          <mxGeometry x="320" y="360" width="120" height="70" as="geometry" />
        </mxCell>
        <mxCell id="7jXIdRQ8j1PeMLdHEunO-5" value="Go&lt;br&gt;Backend" style="rounded=0;whiteSpace=wrap;html=1;fillColor=#f5f5f5;fontColor=#333333;strokeColor=#666666;" parent="1" vertex="1">
          <mxGeometry x="320" y="450" width="120" height="70" as="geometry" />
        </mxCell>
        <mxCell id="7jXIdRQ8j1PeMLdHEunO-7" value="" style="rounded=0;whiteSpace=wrap;html=1;fillColor=#f5f5f5;fontColor=#333333;strokeColor=#666666;" parent="1" vertex="1">
          <mxGeometry x="505" y="380" width="50" height="50" as="geometry" />
        </mxCell>
        <mxCell id="7jXIdRQ8j1PeMLdHEunO-11" value=".mcap" style="text;strokeColor=none;align=center;fillColor=none;html=1;verticalAlign=middle;whiteSpace=wrap;rounded=0;" parent="1" vertex="1">
          <mxGeometry x="500" y="390" width="60" height="30" as="geometry" />
        </mxCell>
        <mxCell id="7jXIdRQ8j1PeMLdHEunO-17" value="" style="shape=trapezoid;perimeter=trapezoidPerimeter;whiteSpace=wrap;html=1;fixedSize=1;fillColor=#f5f5f5;fontColor=#333333;strokeColor=#666666;" parent="1" vertex="1">
          <mxGeometry x="620" y="450" width="160" height="60" as="geometry" />
        </mxCell>
        <mxCell id="7jXIdRQ8j1PeMLdHEunO-18" value="" style="rounded=0;whiteSpace=wrap;html=1;fillColor=#f5f5f5;fontColor=#333333;strokeColor=#666666;" parent="1" vertex="1">
          <mxGeometry x="640" y="370" width="120" height="80" as="geometry" />
        </mxCell>
        <mxCell id="7jXIdRQ8j1PeMLdHEunO-19" value="" style="rounded=0;whiteSpace=wrap;html=1;" parent="1" vertex="1">
          <mxGeometry x="650" y="380" width="100" height="60" as="geometry" />
        </mxCell>
        <mxCell id="7jXIdRQ8j1PeMLdHEunO-20" value="" style="shape=trapezoid;perimeter=trapezoidPerimeter;whiteSpace=wrap;html=1;fixedSize=1;fillColor=#999999;fontColor=#333333;strokeColor=#666666;size=10;" parent="1" vertex="1">
          <mxGeometry x="645" y="460" width="110" height="20" as="geometry" />
        </mxCell>
        <mxCell id="7jXIdRQ8j1PeMLdHEunO-21" value="" style="shape=trapezoid;perimeter=trapezoidPerimeter;whiteSpace=wrap;html=1;fixedSize=1;fillColor=#999999;fontColor=#333333;strokeColor=#666666;size=10;" parent="1" vertex="1">
          <mxGeometry x="672.5" y="490" width="55" height="20" as="geometry" />
        </mxCell>
        <mxCell id="7jXIdRQ8j1PeMLdHEunO-24" value="Websockets" style="shape=doubleArrow;whiteSpace=wrap;html=1;arrowWidth=0.6040816326530636;arrowSize=0.09047619047619036;fillColor=#f5f5f5;fontColor=#333333;strokeColor=#666666;" parent="1" vertex="1">
          <mxGeometry x="460" y="467.5" width="150" height="35" as="geometry" />
        </mxCell>
        <mxCell id="7jXIdRQ8j1PeMLdHEunO-25" value="" style="endArrow=classic;html=1;rounded=0;" parent="1" edge="1">
          <mxGeometry width="50" height="50" relative="1" as="geometry">
            <mxPoint x="455" y="400" as="sourcePoint" />
            <mxPoint x="490" y="400" as="targetPoint" />
          </mxGeometry>
        </mxCell>
        <mxCell id="7jXIdRQ8j1PeMLdHEunO-26" value="" style="endArrow=classic;html=1;rounded=0;" parent="1" edge="1">
          <mxGeometry width="50" height="50" relative="1" as="geometry">
            <mxPoint x="585" y="400" as="sourcePoint" />
            <mxPoint x="620" y="400" as="targetPoint" />
          </mxGeometry>
        </mxCell>
        <mxCell id="7jXIdRQ8j1PeMLdHEunO-27" value="" style="endArrow=classic;html=1;rounded=0;" parent="1" edge="1">
          <mxGeometry width="50" height="50" relative="1" as="geometry">
            <mxPoint x="240" y="440" as="sourcePoint" />
            <mxPoint x="300" y="440" as="targetPoint" />
          </mxGeometry>
        </mxCell>
      </root>
    </mxGraphModel>
  </diagram>
</mxfile>
